<?xml version="1.0" encoding="UTF-8" standalone="no"?>
<!-- Uploaded to: SVG Repo, www.svgrepo.com, Generator: SVG Repo Mixer Tools -->

<svg
   width="800px"
   height="800px"
   viewBox="0 0 24 24"
   fill="none"
   version="1.1"
   id="svg1"
   sodipodi:docname="linkedin_icon.svg"
   inkscape:version="1.4.2 (f4327f4, 2025-05-13)"
   xmlns:inkscape="http://www.inkscape.org/namespaces/inkscape"
   xmlns:sodipodi="http://sodipodi.sourceforge.net/DTD/sodipodi-0.dtd"
   xmlns="http://www.w3.org/2000/svg"
   xmlns:svg="http://www.w3.org/2000/svg">
  <defs
     id="defs1" />
  <sodipodi:namedview
     id="namedview1"
     pagecolor="#ffffff"
     bordercolor="#000000"
     borderopacity="0.25"
     inkscape:showpageshadow="2"
     inkscape:pageopacity="0.0"
     inkscape:pagecheckerboard="0"
     inkscape:deskcolor="#d1d1d1"
     inkscape:zoom="1.45875"
     inkscape:cx="400"
     inkscape:cy="345.50129"
     inkscape:window-width="1718"
     inkscape:window-height="1360"
     inkscape:window-x="-7"
     inkscape:window-y="0"
     inkscape:window-maximized="0"
     inkscape:current-layer="svg1" />
  <path
     d="M 22.130907,0.05210118 H 2.1063666 C 1.8482677,0.04001222 1.5903036,0.07893382 1.3472641,0.1666607 1.1042247,0.25438774 0.88087975,0.38918042 0.68999431,0.5633144 0.49912359,0.73746352 0.34446215,0.94754918 0.23488967,1.1815278 0.12531719,1.4155214 0.06296362,1.6688181 0.05141389,1.9269296 V 21.995137 c 0.01511968,0.5401 0.23648454,1.054103 0.61863075,1.436118 0.38214626,0.382165 0.89609446,0.603546 1.43632196,0.618694 H 22.130907 c 0.525136,-0.02339 1.020276,-0.251677 1.379217,-0.635792 0.358943,-0.384116 0.553037,-0.893468 0.540739,-1.41902 V 1.9269296 C 24.055163,1.6757027 24.008113,1.4262605 23.912566,1.1938716 23.817019,0.96149798 23.674971,0.75108227 23.495125,0.57552326 23.31543,0.39997939 23.101684,0.26301197 22.867089,0.17300512 22.632495,0.08299837 22.382,0.04185722 22.130907,0.05210118 Z M 7.5512414,20.060314 H 4.0563218 V 9.3662938 H 7.5512414 Z M 5.8862798,7.7463965 C 5.6424005,7.7549011 5.3993909,7.7128749 5.1725358,7.6229735 4.9456664,7.5330707 4.7398411,7.3972285 4.568005,7.2239795 4.3961541,7.0507303 4.2619822,6.8438243 4.1739339,6.6162503 4.0858699,6.3886759 4.0458379,6.1453533 4.0563211,5.9015655 4.0455371,5.6551367 4.0863691,5.4091907 4.1762443,5.1794867 4.2661067,4.9497683 4.4029931,4.741377 4.578115,4.5676778 4.753251,4.3939626 4.9627512,4.2587818 5.1931909,4.1707991 5.4236453,4.0828023 5.66994,4.0439575 5.9162792,4.0567351 c 0.2438784,-0.00848 0.486889,0.03352 0.7137437,0.123424 0.2268704,0.089901 0.4326953,0.225744 0.6045312,0.3989936 0.1718528,0.173248 0.3060224,0.3801552 0.394071,0.6077292 0.088061,0.2275744 0.128096,0.470897 0.1176128,0.7146845 C 7.7570219,6.1479952 7.7161899,6.3939415 7.6263147,6.6236455 7.5364527,6.8533639 7.3995659,7.0617555 7.2244443,7.2354544 7.0493083,7.4091696 6.8398082,7.5443504 6.6093685,7.6323331 6.3789141,7.7203299 6.1326194,7.7591779 5.8862802,7.7464035 Z M 20.060953,20.060314 H 16.551035 V 14.21085 c 0,-1.394874 -0.494988,-2.354786 -1.739961,-2.354786 -0.38669,0.0033 -0.763032,0.126138 -1.077124,0.35172 -0.314243,0.225578 -0.550939,0.542799 -0.677835,0.908166 -0.0975,0.273875 -0.138298,0.564698 -0.119991,0.854922 v 6.089442 H 9.486197 V 9.3662938 h 3.449921 v 1.4998622 c 0.306742,-0.563498 0.763181,-1.031155 1.319069,-1.3515265 0.555887,-0.3202202 1.189473,-0.4805856 1.830859,-0.463353 2.264948,0 3.974907,1.4999095 3.974907,4.6946165 z"
     fill="#000000"
     id="path1"
     style="stroke-width:1.49992;fill:#0a66c2;fill-opacity:1" />
</svg>
